<?xml version="1.0" encoding="utf-8"?>
<!-- Generator: Adobe Illustrator 15.0.2, SVG Export Plug-In . SVG Version: 6.00 Build 0)  -->
<!DOCTYPE svg PUBLIC "-//W3C//DTD SVG 1.0//EN" "http://www.w3.org/TR/2001/REC-SVG-20010904/DTD/svg10.dtd">
<svg version="1.0" id="Calque_1" xmlns="http://www.w3.org/2000/svg" xmlns:xlink="http://www.w3.org/1999/xlink" x="0px" y="0px"
	 width="500px" height="500px" viewBox="0 0 500 500" enable-background="new 0 0 500 500" xml:space="preserve">
<g>
	<rect x="42.331" y="42.325" fill="#B0CA35" width="415.338" height="415.351"/>
	<path fill="#4F5257" d="M180.335,312.594c0,0-139.618,34.76-137.86,102.734c1.768,67.949,235.63,33.814,242.109,31.936
		c6.501-1.865,153.662-21.98,172.667-107.105c0,0,2.892-19.424-15.373-30.371c-18.262-10.975-45.633-16.604-58.016-15.658v4.684
		c0,0,64.698,4.975,66.504,38.059c0,0,1.781,30.322-45.947,61.34c-47.714,31.006-123.78,41.584-123.78,41.584
		s-79.269,9.668-126.097,6.154c-49.077-3.693-97.844-11.451-84.601-53.727c13.267-42.287,110.011-72.574,110.011-72.574
		L180.335,312.594z"/>
	<rect x="42.331" y="42.336" fill="none" width="415.338" height="415.339"/>
	<polygon fill="#FFFFFF" points="121.84,121.283 117.034,121.283 106.157,88.366 112.827,88.366 119.449,109.821 126.045,88.366 
		132.764,88.366 	"/>
	<rect x="148.326" y="88.366" fill="#FFFFFF" width="6.431" height="32.917"/>
	<polygon fill="#FFFFFF" points="174.024,121.283 174.024,88.366 180.441,88.366 180.441,115.558 195.371,115.558 195.371,121.283 	
		"/>
	<polygon fill="#FFFFFF" points="212.2,121.283 212.2,88.366 218.631,88.366 218.631,115.558 233.571,115.558 233.571,121.283 	"/>
	<polygon fill="#FFFFFF" points="250.377,121.283 250.377,88.366 272.071,88.366 272.071,94.103 256.808,94.103 256.808,101.824 
		269.811,101.824 269.811,107.549 256.808,107.549 256.808,115.558 272.071,115.558 272.071,121.283 	"/>
	<path fill="#FFFFFF" d="M332.849,118.14c-2.175,2.174-5.284,3.143-8.701,3.143h-11.88V88.354h11.88c3.417,0,6.526,0.98,8.701,3.156
		c3.692,3.693,3.323,8.235,3.323,13.172C336.172,109.629,336.541,114.445,332.849,118.14 M328.354,96.135
		c-1.1-1.352-2.582-2.032-4.804-2.032h-4.865v21.455h4.865c2.222,0,3.704-0.706,4.804-2.032c1.219-1.482,1.387-3.848,1.387-8.845
		C329.741,99.697,329.573,97.618,328.354,96.135"/>
	<polygon fill="#FFFFFF" points="354.34,121.283 354.34,88.366 376.021,88.366 376.021,94.103 360.77,94.103 360.77,101.824 
		373.75,101.824 373.75,107.549 360.77,107.549 360.77,115.558 376.021,115.558 376.021,121.283 	"/>
	<path fill="#4F5257" d="M302.191,199.082l-9.108,0.275c0,0-3.132,15.096-14.523,30.729l8.104,4.28l9.539-16.65
		c0,0,4.995,34.017,5.4,52.519c0.433,18.502-6.237,19.783-7.817,17.93c-1.553-1.84-8.233-6.551-13.791-16.805l-7.698,5.125
		c0,0,16.949,30.182,28.759,19.797c0,0,10.96-6.838,9.537-33.156C310.593,263.125,305.753,210.89,302.191,199.082 M260.487,200.349
		h-9.239c-5.414,23.918-20.211,66.183-29.2,77.86c-8.951,11.676-10.947,11.809-15.798,9.391c-4.831-2.422-9.66-16.229-9.66-16.229
		c12.096-6.406,18.921-21.767,18.921-21.767c12.25-22.207,2.427-51.526-16.651-43.267c-19.064,8.248-13.243,59.761-13.243,59.761
		c-6.286,2.572-11.02,2.537-14.581,1.113l-1.888,9.395c9.393,2.762,18.739-1.242,18.739-1.242
		c9.562,21.348,17.235,21.92,17.235,21.92c14.942,4.828,26.894-17.234,26.894-17.234c14.248,21.215,21.06,19.219,21.06,19.219
		c18.516-0.707,15.683-36.719,15.683-36.719C268.447,243.055,260.487,200.349,260.487,200.349 M194.319,238.501
		c0,0,0.692-23.343,9.226-24.205c8.547-0.848,8.271,14.822,8.271,14.822c-2.281,23.319-17.223,32.295-17.223,32.295
		C193.459,252.868,194.319,238.501,194.319,238.501 M258.921,276.916c-2.854,20.367-8.113,12.406-14.522,4.424
		c-6.394-7.984-6.263-9.121-6.263-9.121l-2.843,1.564c0,0,11.259-19.35,19.517-51.943
		C254.81,221.84,261.778,256.574,258.921,276.916 M397.681,272.65c0,0-23.477,3.572-20.907-25.34
		c2.559-28.877,24.897-28.46,31.878-25.902l2.271-9.096c0,0-39.275-10.398-43.556,34.303c-1.122,11.763,0.611,19.698,4.746,25.138
		c-1.663,2.449-11.822,16.828-14.834,2.33c-3.274-15.801-1.862-30.467,0.839-39.288c2.725-8.833,0.153-26.618-15.073-27.61
		c-15.227-1.003-26.762,25.328-27.622,37.997c-0.848,12.669-6.265,46.544,17.785,38.714c0,0,5.14-0.992,12.956-18.072
		c0,0,3.706,44.129,32.87,11.82l-0.047-0.045c14.7,7.861,42.214,4.256,78.48,4.158v-9.107H397.681z M335.071,266.961
		c-4.697,10.518-7.829,8.832-7.829,8.832c-6.273-1.434-3.717-17.51-3.717-17.51c-0.418-15.229,6.98-35.583,15.252-40.281
		c8.246-4.685,10.663,5.976,10.663,5.976C350.872,240.199,335.071,266.961,335.071,266.961 M127.852,247.501
		c0,0,49.506-14.164,52.291-42.348c2.763-28.184-24.823-45.837-64.709-50.535c0,0-35.033-3.49-73.029-1.518v9.204
		c0,0,112.234-5.342,125.596,26.857c0,0,18.564,31.172-40.447,48.264l-0.431-32.427h-9.631l0.427,35.344
		c0,0-23.857,6.55-75.491,13.147l-0.096,9.872c0,0,62.475-8.998,75.886-13.087c0,0,1.304,28.183,3.646,39.289l9.346-1.611
		C131.209,287.951,126.669,252.031,127.852,247.501"/>
</g>
</svg>
